<?xml version="1.0" encoding="UTF-8"?>
<svg width="460" height="120" viewBox="0 0 500 120" xmlns="http://www.w3.org/2000/svg">
    <!-- J -->
    <path d="M50 20
         L50 80
         Q50 90, 40 90
         L30 90"
          fill="none"
          stroke="#2196F3"
          stroke-width="8"
          stroke-linecap="round"/>

    <!-- I -->
    <path d="M80 40
         L80 90"
          fill="none"
          stroke="#2196F3"
          stroke-width="8"
          stroke-linecap="round"/>

    <!-- C -->
    <path d="M140 50
         Q100 50, 100 70
         Q100 90, 140 90"
          fill="none"
          stroke="#2196F3"
          stroke-width="8"
          stroke-linecap="round"/>

    <!-- H -->
    <path d="M160 20
         L160 90
         M160 55
         L190 55
         L190 90"
          fill="none"
          stroke="#2196F3"
          stroke-width="8"
          stroke-linecap="round"/>

    <!-- U -->
    <path d="M220 50
         L220 80
         Q220 90, 235 90
         Q250 90, 250 80
         L250 50"
          fill="none"
          stroke="#2196F3"
          stroke-width="8"
          stroke-linecap="round"/>

    <!-- A -->
    <path d="M280 90
         L280 60
         Q280 50, 295 50
         Q310 50, 310 60
         L310 90
         M280 70
         L310 70"
          fill="none"
          stroke="#2196F3"
          stroke-width="8"
          stroke-linecap="round"/>

    <!-- N -->
    <path d="M340 50
         L340 90
         M340 50
         L370 90
         M370 50
         L370 90"
          fill="none"
          stroke="#2196F3"
          stroke-width="8"
          stroke-linecap="round"/>

    <!-- G -->
    <path d="M420 50
         Q400 50, 400 70
         Q400 90, 420 90
         L440 90
         L440 110"
          fill="none"
          stroke="#2196F3"
          stroke-width="8"
          stroke-linecap="round"/>
</svg>
